<?xml version="1.0" encoding="utf-8"?>
<!-- Generator: Adobe Illustrator 21.0.0, SVG Export Plug-In . SVG Version: 6.00 Build 0)  -->
<svg version="1.1"
	 id="svg8" inkscape:version="0.92.4 (5da689c313, 2019-01-14)" sodipodi:docname="template.svg" xmlns:cc="http://creativecommons.org/ns#" xmlns:dc="http://purl.org/dc/elements/1.1/" xmlns:inkscape="http://www.inkscape.org/namespaces/inkscape" xmlns:rdf="http://www.w3.org/1999/02/22-rdf-syntax-ns#" xmlns:sodipodi="http://sodipodi.sourceforge.net/DTD/sodipodi-0.dtd" xmlns:svg="http://www.w3.org/2000/svg"
	 xmlns="http://www.w3.org/2000/svg" xmlns:xlink="http://www.w3.org/1999/xlink" x="0px" y="0px" viewBox="0 0 283.5 198.4"
	 style="enable-background:new 0 0 283.5 198.4;" xml:space="preserve">
<style type="text/css">
	.st0{fill:none;stroke:#000000;stroke-width:0.1517;}
	.st1{fill:none;stroke:#000000;stroke-width:0.1814;}
	.st2{fill:none;stroke:#000000;stroke-width:0.3705;stroke-miterlimit:10;}
</style>
<sodipodi:namedview  bordercolor="#666666" borderopacity="1.0" id="base" inkscape:current-layer="layer1" inkscape:cx="21.390532" inkscape:cy="203.43349" inkscape:document-units="mm" inkscape:guide-bbox="true" inkscape:pageopacity="0.0" inkscape:pageshadow="2" inkscape:window-height="986" inkscape:window-maximized="1" inkscape:window-width="1920" inkscape:window-x="-11" inkscape:window-y="-11" inkscape:zoom="1.8101934" pagecolor="#ffffff" showgrid="true" showguides="true">
	<inkscape:grid  id="grid1200" type="xygrid"></inkscape:grid>
</sodipodi:namedview>
<g id="layer2" inkscape:groupmode="layer" inkscape:label="Layer 2" sodipodi:insensitive="true">
	<path id="rect928" inkscape:connector-curvature="0" class="st0" d="M28.3,0h28.3v198.4H28.3V0z"/>
	<path id="rect928-3" inkscape:connector-curvature="0" class="st0" d="M85,0h28.3v198.4H85V0z"/>
	<path id="rect928-3-8" inkscape:connector-curvature="0" class="st0" d="M141.7,0h28.3v198.4h-28.3V0z"/>
	<path id="rect928-3-8-2" inkscape:connector-curvature="0" class="st0" d="M198.4,0h28.3v198.4h-28.3V0z"/>
	<path id="rect928-3-8-2-1" inkscape:connector-curvature="0" class="st0" d="M255.1,0h28.3v198.4h-28.3V0z"/>
	<path id="rect928-1" inkscape:connector-curvature="0" class="st1" d="M283.5,28.3v28.3H0V28.3H283.5z"/>
	<path id="rect928-1-1" inkscape:connector-curvature="0" class="st1" d="M283.5,85v28.3H0V85H283.5z"/>
	<path id="rect928-1-1-7" inkscape:connector-curvature="0" class="st1" d="M283.5,141.7v28.3H0v-28.3H283.5z"/>
</g>
<g id="g327" transform="translate(0,-227)">
</g>
<g id="g5930" transform="translate(0,20)">
</g>
<path class="st2" d="M45.4,141.8c-2.6,0.7-4.6,3.1-4.6,5.9c0,3.4,2.7,6.1,6.1,6.1c3.4,0,6.1-2.7,6.1-6.1c0-3-2.2-5.5-5-6v-82V46
	l0.1,0l12.4-24.3c0.5,0.1,1,0.2,1.5,0.2c3.4,0,6.1-2.7,6.1-6.1c0-3.4-2.7-6.1-6.1-6.1c-3.4,0-6.1,2.7-6.1,6.1c0,1.9,0.9,3.6,2.3,4.7
	L47.9,40.5V21.9c2.9-0.5,5-3,5-6c0-3.4-2.7-6.1-6.1-6.1c-3.4,0-6.1,2.7-6.1,6.1c0,2.8,2,5.2,4.6,5.9v18.7L35,20.2
	c1.1-1.1,1.8-2.7,1.8-4.4c0-3.4-2.7-6.1-6.1-6.1s-6.1,2.7-6.1,6.1c0,3.4,2.7,6.1,6.1,6.1c0.7,0,1.4-0.1,2.1-0.4l12.5,24.5v13.7
	V141.8l-31-21.8v63.3"/>
</svg>
