<svg id="Layer_1" data-name="Layer 1" xmlns="http://www.w3.org/2000/svg" viewBox="0 0 59.88 114.33"><defs><style>.cls-1{fill:#fff;stroke:#231f20;stroke-miterlimit:10;}</style></defs><title>Placa microfluidica fungal highways</title><path class="cls-1" d="M10.39,153.43v4.74H64.64v13.09H10.39v4.83H64.64v13.17H10.39v5.08H64.64v13.17H5.76v-4.25H60.39v-4.67H6.14V185H60.39v-4.67H6.14V167H60.39v-4.58H6.14V149.17H60.39V135.43H48.28c-1.62,4.8-7.36,8.34-14.2,8.34s-12.57-3.54-14.19-8.34H6.05l.09-31.26H18.83c1.65-5.72,8.35-10,16.37-10s14.72,4.27,16.37,10H62.51v4.26H51.85c-1,6.31-8.07,11.21-16.65,11.21s-15.66-4.9-16.65-11.21H10.38l-.07,22.74h9.26c1-5.44,7.09-9.63,14.51-9.63s13.57,4.19,14.52,9.63h16v22.26Z" transform="translate(-5.26 -93.68)"/></svg>